<?xml version="1.0" encoding="UTF-8"?>
<svg width="23px" height="20px" viewBox="0 0 23 20" version="1.1" xmlns="http://www.w3.org/2000/svg" xmlns:xlink="http://www.w3.org/1999/xlink">
    <!-- Generator: Sketch 52.1 (67048) - http://www.bohemiancoding.com/sketch -->
    <title>Combined Shape</title>
    <desc>Created with Sketch.</desc>
    <g id="Layout" stroke="none" stroke-width="1" fill="none" fill-rule="evenodd">
        <g id="Logado---Informações-Básicas" transform="translate(-394.000000, -555.000000)" fill="#1B376E" stroke="#1B376E" stroke-width="0.5">
            <g id="Foto" transform="translate(127.000000, 408.000000)">
                <g id="Botão---Foto" transform="translate(231.000000, 131.000000)">
                    <g id="Icone---Texto" transform="translate(37.000000, 15.000000)">
                        <path d="M10.9398533,15.653091 C10.9156729,15.402039 10.873475,15.1692212 10.8749729,14.9366596 C10.8780971,14.447708 10.5999587,14.2019084 10.1725013,14.0709805 C10.0434253,14.0314373 9.91306531,13.9867698 9.78013752,13.9707988 C9.36333659,13.9206225 8.94315469,13.8960255 8.52772327,13.8371805 C8.04441565,13.7686846 7.77513631,13.4759542 7.76122726,13.0117705 C7.74800296,12.5710308 7.75309581,12.1295225 7.76191201,11.6885694 C7.76306753,11.6305357 7.82349703,11.5365033 7.8740832,11.5225394 C8.26379357,11.4150127 8.52126091,11.1239478 8.8206266,10.8853223 C9.11515623,10.6505829 9.2791975,10.3741224 9.32691626,9.99577212 C9.41747492,9.27810228 9.61314325,8.5734996 9.55429724,7.83870578 C9.48595028,6.98430031 9.04137403,6.40306716 8.25942827,6.20799898 C7.62016803,6.04854526 6.97221997,6.04939932 6.33304533,6.20996332 C5.74561237,6.35758826 5.31087946,6.71087177 5.16245912,7.30645319 C5.06958942,7.67916665 5.02234143,8.08271182 5.05696428,8.46315456 C5.11662343,9.11954532 5.25361694,9.76910358 5.36536016,10.4202846 C5.37742894,10.4906167 5.42364981,10.5667992 5.47641863,10.6167192 C5.8483254,10.9685508 6.20996087,11.3345172 6.71261278,11.5104544 C6.77162998,11.53108 6.8406617,11.6276319 6.84220239,11.6905337 C6.85281607,12.12427 6.85944962,12.5589031 6.84258757,12.9922978 C6.82341447,13.48505 6.56432084,13.7627061 6.07459366,13.8399135 C5.89938234,13.8675425 5.72023369,13.8713003 5.54271133,13.8829156 C5.0714297,13.91379 4.60344344,13.9649057 4.17756952,14.1889267 C3.99572466,14.2846245 3.80617632,14.3909555 3.77561919,14.6257803 C3.73170937,14.9631355 3.69777127,15.3017719 3.65809836,15.653091 L10.9398533,15.653091 Z M0.909283601,9.28079258 C0.909283601,11.0810738 0.908470456,12.8813549 0.909711572,14.6816361 C0.910139543,15.2765343 1.28649722,15.6556532 1.88150526,15.6646636 C2.08111092,15.6676955 2.28135854,15.6564219 2.48036504,15.6681653 C2.62442007,15.6766632 2.68639027,15.6163663 2.7109986,15.4840291 C2.76291148,15.2047075 2.84683658,14.9287168 2.87114533,14.6473881 C2.93923552,13.8587456 3.39138685,13.3982344 4.11975065,13.2088884 C4.5848695,13.087953 5.07044536,13.0436271 5.54814656,12.9735938 C5.70521191,12.9505768 5.87075108,12.9228624 5.89339075,12.7478648 C5.92120886,12.5328542 6.00770179,12.2903855 5.82667007,12.1030465 C5.66904836,11.9399204 5.4959341,11.7852921 5.30809765,11.6588906 C4.75310489,11.2854085 4.42108501,10.7868488 4.374051,10.1120102 C4.371098,10.0697768 4.35830167,10.0282693 4.35158252,9.98616391 C4.22464633,9.19423321 4.04994858,8.40994638 4.15497266,7.59461433 C4.30540445,6.42698095 4.99165591,5.61015429 6.13502316,5.32152341 C6.90117679,5.12816336 7.67601824,5.12927364 8.4432846,5.31725309 C9.23254866,5.51057044 9.84065262,5.94921763 10.1861108,6.70109274 C10.4409675,7.2557218 10.5402568,7.84775885 10.4731509,8.44961764 C10.4000535,9.10570949 10.2631884,9.75445638 10.1751975,10.4092244 C10.118149,10.8333952 9.89752996,11.1480751 9.58755059,11.4155679 C9.31275042,11.6527414 9.03037518,11.8812035 8.75497586,12.1177364 C8.71106603,12.1554434 8.65812602,12.2147581 8.65714169,12.2650625 C8.64639962,12.8055995 8.59260367,12.9797004 9.24063732,12.9840134 C9.26914018,12.9841842 9.29772864,12.9852518 9.32610312,12.9879421 C9.86025369,13.0392713 10.3833626,13.1320227 10.8737317,13.366207 C11.3312327,13.5847192 11.6137364,13.9260458 11.6910279,14.4353668 C11.7422132,14.7723804 11.8171938,15.1057215 11.8776661,15.4413686 C11.9070249,15.6042813 11.9772977,15.6895596 12.1636363,15.6693609 C12.3398319,15.6502299 12.5197509,15.6665425 12.6980008,15.6649198 C13.319757,15.6593257 13.6961575,15.2844771 13.6963715,14.6627186 C13.6974842,11.0835078 13.697527,7.50429708 13.6962859,3.92508632 C13.6960719,3.27454589 13.3245503,2.90845143 12.6726649,2.90840872 C9.09983487,2.9081098 5.5270048,2.9081525 1.95421753,2.90836602 C1.269036,2.90840872 0.90958318,3.26451064 0.909369195,3.94400384 C0.908941224,5.72293342 0.909240804,7.501863 0.909283601,9.28079258 Z M7.31562388,2.00023993 C9.09850816,2.00023993 10.8813924,1.99955668 12.6642767,2.00049615 C13.8417532,2.001094 14.6039695,2.76150974 14.6041407,3.93537779 C14.6045687,7.50754252 14.6046543,11.07975 14.6040551,14.6519147 C14.6038411,15.796104 13.8299412,16.5728324 12.6897838,16.5730459 C9.09551236,16.5736864 5.50119815,16.5736437 1.90688394,16.5730459 C0.785172019,16.5728751 0.00207073379,15.8016127 0.00142877733,14.6889384 C-0.000582686241,11.095422 -0.000325903658,7.5019057 0.00130038604,3.90834667 C0.00172835701,2.94667078 0.5613432,2.22660956 1.45670127,2.03875821 C1.62219765,2.00404052 1.79663861,2.00203347 1.96697106,2.00177725 C3.74985534,1.99930046 5.53273961,2.00023993 7.31562388,2.00023993 Z M21,9.5177227 C20.9600275,9.65740484 20.9203546,9.92237815 20.8120779,10.1556657 C19.4176201,13.1600488 18.0170423,16.1616134 16.6095314,19.1599754 C16.1717171,20.0926131 15.1332455,20.465113 14.1921801,20.0388498 C13.3623016,19.6629336 12.5386715,19.2731815 11.7130727,18.8878706 C11.446404,18.7633908 11.3427922,18.5172923 11.4504697,18.277941 C11.5534395,18.0491372 11.8041449,17.9480588 12.0640089,18.0648093 C12.8559264,18.4206977 13.6422375,18.7890982 14.4303032,19.1535699 C15.0987939,19.462741 15.5433701,19.3022197 15.8535207,18.6385694 C17.2107878,15.7344107 18.5681833,12.8303374 19.9254933,9.92622143 C20.2419778,9.24903421 20.0814887,8.80568967 19.4052518,8.49118066 C18.3984929,8.02298286 17.3912204,7.55572453 16.3846754,7.08692889 C16.320437,7.05699395 16.2575253,7.02184922 16.1996636,6.98111038 C15.9655207,6.81631876 15.8993136,6.5867891 16.0200442,6.37173583 C16.1453541,6.14844083 16.3852746,6.08434334 16.6510874,6.20784098 C17.5161023,6.60972072 18.3804325,7.01305237 19.2449338,7.41599969 C19.4900328,7.53023073 19.7389407,7.63733033 19.9790752,7.76121229 C20.6415315,8.10296594 20.9660619,8.65716797 21,9.5177227 Z" id="Combined-Shape"></path>
                    </g>
                </g>
            </g>
        </g>
    </g>
</svg>